<svg id="SvgjsSvg1006" width="260" height="40" xmlns="http://www.w3.org/2000/svg" version="1.1" xmlns:xlink="http://www.w3.org/1999/xlink" xmlns:svgjs="http://svgjs.com/svgjs" viewBox="0 0 373.359375 88.03125"><defs id="SvgjsDefs1007"></defs><g id="SvgjsG1009" transform="rotate(0 55 42.515625)"><svg width="110" viewBox="0 0 47.35887908935547 36.61086654663086" xmlns="http://www.w3.org/2000/svg" version="1.1" xmlns:xlink="http://www.w3.org/1999/xlink" xmlns:svgjs="http://svgjs.com/svgjs" preserveAspectRatio="none" height="85.03125" x="0" y="0"><g><svg data-color="1" xmlns="http://www.w3.org/2000/svg" xmlns:xlink="http://www.w3.org/1999/xlink" version="1.1" x="0px" y="0px" viewBox="0.3411165773868561 5.789131164550781 47.35887908935547 36.61086654663086" enable-background="new 0 0 48 48" xml:space="preserve" width="47.35887908935547" height="36.61086654663086" fill="#92e0e1"><g><g><g><path d="M22.3,10.8c-6.5-7.4-21-6-21.9,5.5c-0.5,6.9,2.2,11.8,7.5,16c2.7,2.2,5.7,4.2,8.6,6.1c1.9,1.2,5,4,7.4,4     c2.1,0,5.2-3,6.9-4c2.2-1.4,4.3-3.1,5.9-5.2c3.7-4.9,5.9-8.7,6-14.7c0-4.5-0.1-9.5-5.1-11.3c-2.5-0.9-5.1-1.5-7.8-1.4     c-3,0.1-6,3-8.3,4.6c-0.7,0.4,0,1.5,0.6,1.1c4.2-2.8,7.3-5,12.7-3.8c6.4,1.4,6.7,6.7,6.6,12.2c-0.1,8.4-7.4,15.2-14,19.3     c-5,3.1-9.2-0.9-13.2-3.7c-3.9-2.7-7.8-5.3-10.6-9.2C-5,13.9,11.3,0.3,21.4,11.7C21.9,12.3,22.8,11.4,22.3,10.8L22.3,10.8z"></path></g></g><g><g><path d="M1.5,28.1c4.4-0.4,9.4-0.2,13.7-1.4c2.2-0.6,2.6-6,2.4-7.7c-0.4,0.1-0.8,0.2-1.2,0.3     c2.8,5.3,4.9,10.9,6.5,16.7c0.2,0.7,1.1,0.5,1.2-0.2c0.9-7.8,1.9-15.6,3.8-23.2c-0.4,0-0.8,0-1.2,0c0.7,3.5,1.4,7,2.1,10.5     c0.2,1,0.2,3.8,1.3,4.5c1.5,0.9,4.7,0.1,6.3,0.1c3.6-0.1,7.1-0.1,10.7-0.1c0.8,0,0.8-1.2,0-1.3c-4.8,0-9.5,0.1-14.3,0.2     c-3.7,0.1-4.5-11.7-5-14.2c-0.1-0.6-1.1-0.6-1.2,0c-1.9,7.8-2.9,15.7-3.8,23.6c0.4-0.1,0.8-0.1,1.2-0.2c-1.6-5.9-3.8-11.5-6.6-17     c-0.3-0.5-1.2-0.3-1.2,0.3c0.3,4.9-1.4,6.7-5.9,7.1c-3,0.3-6,0.5-9,0.8C0.7,26.9,0.7,28.2,1.5,28.1L1.5,28.1z"></path></g></g></g></svg></g><defs id="SvgjsDefs1008"></defs></svg></g><g id="SvgjsG1011" transform="rotate(0 250.6796875 42.5078125)"><svg xmlns="http://www.w3.org/2000/svg" xmlns:xlink="http://www.w3.org/1999/xlink" width="245.359375" viewBox="0 2.8499999046325684 245.3699951171875 34.59000015258789" overflow="visible" style="overflow: visible;" transform="" version="1.1" xmlns:svgjs="http://svgjs.com/svgjs" preserveAspectRatio="none" height="34.578125" x="128" y="25.21875" fill="#000000" stroke="none"><path stroke="none" fill="#516fca" d="M14.40 10.26L21.90 10.26L14.28 25.05L14.28 31.50L7.62 31.50L7.62 25.05L0 10.26L7.62 10.26L11.01 17.79L14.40 10.26ZM31.44 14.37L31.44 14.37Q33.99 14.37 36.03 15.42L36.03 15.42L36.03 15.42Q38.07 16.47 39.22 18.44L39.22 18.44L39.22 18.44Q40.38 20.40 40.38 23.04L40.38 23.04L40.38 23.04Q40.38 25.68 39.22 27.64L39.22 27.64L39.22 27.64Q38.07 29.61 36.03 30.66L36.03 30.66L36.03 30.66Q33.99 31.71 31.44 31.71L31.44 31.71L31.44 31.71Q28.89 31.71 26.85 30.66L26.85 30.66L26.85 30.66Q24.81 29.61 23.65 27.64L23.65 27.64L23.65 27.64Q22.50 25.68 22.50 23.04L22.50 23.04L22.50 23.04Q22.50 20.40 23.65 18.44L23.65 18.44L23.65 18.44Q24.81 16.47 26.85 15.42L26.85 15.42L26.85 15.42Q28.89 14.37 31.44 14.37L31.44 14.37ZM31.44 20.13L31.44 20.13Q30.51 20.13 29.88 20.87L29.88 20.87L29.88 20.87Q29.25 21.60 29.25 23.04L29.25 23.04L29.25 23.04Q29.25 24.48 29.86 25.21L29.86 25.21L29.86 25.21Q30.48 25.95 31.44 25.95L31.44 25.95L31.44 25.95Q32.37 25.95 33 25.21L33 25.21L33 25.21Q33.63 24.48 33.63 23.04L33.63 23.04L33.63 23.04Q33.63 21.60 33 20.87L33 20.87L33 20.87Q32.37 20.13 31.44 20.13L31.44 20.13ZM53.73 14.58L60.39 14.58L60.39 31.50L53.73 31.50L53.73 28.92L53.73 28.92Q52.95 30.12 51.64 30.87L51.64 30.87L51.64 30.87Q50.34 31.62 48.54 31.62L48.54 31.62L48.54 31.62Q45.63 31.62 43.99 29.67L43.99 29.67L43.99 29.67Q42.36 27.72 42.36 24.39L42.36 24.39L42.36 14.58L48.99 14.58L48.99 23.55L48.99 23.55Q48.99 24.75 49.63 25.45L49.63 25.45L49.63 25.45Q50.28 26.16 51.36 26.16L51.36 26.16L51.36 26.16Q52.47 26.16 53.10 25.45L53.10 25.45L53.10 25.45Q53.73 24.75 53.73 23.55L53.73 23.55L53.73 14.58ZM70.05 17.70L70.05 17.70Q71.07 16.23 72.54 15.34L72.54 15.34L72.54 15.34Q74.01 14.46 75.60 14.46L75.60 14.46L75.60 21.57L73.71 21.57L73.71 21.57Q71.82 21.57 70.94 22.23L70.94 22.23L70.94 22.23Q70.05 22.89 70.05 24.57L70.05 24.57L70.05 31.50L63.39 31.50L63.39 14.58L70.05 14.58L70.05 17.70ZM102.87 10.26L102.87 31.50L96.21 31.50L89.16 20.82L89.16 31.50L82.50 31.50L82.50 10.26L89.16 10.26L96.21 21.12L96.21 10.26L102.87 10.26ZM117.12 14.58L123.78 14.58L123.78 31.50L117.12 31.50L117.12 28.92L117.12 28.92Q116.34 30.12 115.03 30.87L115.03 30.87L115.03 30.87Q113.73 31.62 111.93 31.62L111.93 31.62L111.93 31.62Q109.02 31.62 107.39 29.67L107.39 29.67L107.39 29.67Q105.75 27.72 105.75 24.39L105.75 24.39L105.75 14.58L112.38 14.58L112.38 23.55L112.38 23.55Q112.38 24.75 113.03 25.45L113.03 25.45L113.03 25.45Q113.67 26.16 114.75 26.16L114.75 26.16L114.75 26.16Q115.86 26.16 116.49 25.45L116.49 25.45L116.49 25.45Q117.12 24.75 117.12 23.55L117.12 23.55L117.12 14.58ZM133.44 17.70L133.44 17.70Q134.46 16.23 135.93 15.34L135.93 15.34L135.93 15.34Q137.40 14.46 138.99 14.46L138.99 14.46L138.99 21.57L137.10 21.57L137.10 21.57Q135.21 21.57 134.32 22.23L134.32 22.23L134.32 22.23Q133.44 22.89 133.44 24.57L133.44 24.57L133.44 31.50L126.78 31.50L126.78 14.58L133.44 14.58L133.44 17.70ZM147.45 14.37L147.45 14.37Q150.90 14.37 152.95 16.04L152.95 16.04L152.95 16.04Q155.01 17.70 155.55 20.43L155.55 20.43L149.34 20.43L149.34 20.43Q148.95 18.99 147.30 18.99L147.30 18.99L147.30 18.99Q146.37 18.99 146.37 19.71L146.37 19.71L146.37 19.71Q146.37 20.22 147.04 20.49L147.04 20.49L147.04 20.49Q147.72 20.76 149.19 21.06L149.19 21.06L149.19 21.06Q151.11 21.42 152.47 21.91L152.47 21.91L152.47 21.91Q153.84 22.41 154.83 23.52L154.83 23.52L154.83 23.52Q155.82 24.63 155.82 26.55L155.82 26.55L155.82 26.55Q155.82 28.05 154.98 29.22L154.98 29.22L154.98 29.22Q154.14 30.39 152.52 31.05L152.52 31.05L152.52 31.05Q150.90 31.71 148.71 31.71L148.71 31.71L148.71 31.71Q145.05 31.71 142.89 30.15L142.89 30.15L142.89 30.15Q140.73 28.59 140.22 25.65L140.22 25.65L146.61 25.65L146.61 25.65Q146.79 27.12 148.68 27.12L148.68 27.12L148.68 27.12Q149.70 27.12 149.70 26.40L149.70 26.40L149.70 26.40Q149.70 25.83 149.01 25.56L149.01 25.56L149.01 25.56Q148.32 25.29 146.79 25.02L146.79 25.02L146.79 25.02Q144.84 24.63 143.56 24.18L143.56 24.18L143.56 24.18Q142.29 23.73 141.33 22.65L141.33 22.65L141.33 22.65Q140.37 21.57 140.37 19.68L140.37 19.68L140.37 19.68Q140.37 18.15 141.18 16.95L141.18 16.95L141.18 16.95Q141.99 15.75 143.58 15.06L143.58 15.06L143.58 15.06Q145.17 14.37 147.45 14.37L147.45 14.37ZM174.54 22.89L174.54 22.89Q174.54 23.52 174.39 24.21L174.39 24.21L163.74 24.21L163.74 24.21Q163.83 25.47 164.31 25.94L164.31 25.94L164.31 25.94Q164.79 26.40 165.57 26.40L165.57 26.40L165.57 26.40Q166.65 26.40 167.13 25.41L167.13 25.41L174.18 25.41L174.18 25.41Q173.82 27.21 172.66 28.64L172.66 28.64L172.66 28.64Q171.51 30.06 169.75 30.89L169.75 30.89L169.75 30.89Q168 31.71 165.90 31.71L165.90 31.71L165.90 31.71Q163.38 31.71 161.41 30.66L161.41 30.66L161.41 30.66Q159.45 29.61 158.35 27.64L158.35 27.64L158.35 27.64Q157.26 25.68 157.26 23.04L157.26 23.04L157.26 23.04Q157.26 20.40 158.35 18.44L158.35 18.44L158.35 18.44Q159.45 16.47 161.41 15.42L161.41 15.42L161.41 15.42Q163.38 14.37 165.90 14.37L165.90 14.37L165.90 14.37Q168.42 14.37 170.38 15.41L170.38 15.41L170.38 15.41Q172.35 16.44 173.44 18.36L173.44 18.36L173.44 18.36Q174.54 20.28 174.54 22.89L174.54 22.89ZM163.80 21.48L167.79 21.48L167.79 21.48Q167.79 20.52 167.25 20.05L167.25 20.05L167.25 20.05Q166.71 19.59 165.90 19.59L165.90 19.59L165.90 19.59Q164.07 19.59 163.80 21.48L163.80 21.48ZM181.08 26.19L181.08 26.19Q185.01 23.22 187.30 20.91L187.30 20.91L187.30 20.91Q189.60 18.60 189.60 16.77L189.60 16.77L189.60 16.77Q189.60 15.27 188.55 15.27L188.55 15.27L188.55 15.27Q187.95 15.27 187.69 15.79L187.69 15.79L187.69 15.79Q187.44 16.32 187.44 17.76L187.44 17.76L180.99 17.76L180.99 17.76Q181.08 14.97 182.20 13.17L182.20 13.17L182.20 13.17Q183.33 11.37 185.13 10.53L185.13 10.53L185.13 10.53Q186.93 9.69 189.09 9.69L189.09 9.69L189.09 9.69Q192.87 9.69 194.62 11.55L194.62 11.55L194.62 11.55Q196.38 13.41 196.38 16.11L196.38 16.11L196.38 16.11Q196.38 18.96 194.49 21.48L194.49 21.48L194.49 21.48Q192.60 24 189.72 25.83L189.72 25.83L196.59 25.83L196.59 31.20L181.08 31.20L181.08 26.19ZM208.17 28.20L198.78 28.20L198.78 22.65L207.72 9.90L214.89 9.90L214.89 22.44L217.05 22.44L217.05 28.20L214.89 28.20L214.89 31.50L208.17 31.50L208.17 28.20ZM208.71 22.44L208.71 17.49L205.47 22.44L208.71 22.44ZM225.24 2.85L231.60 2.85L223.65 37.44L217.26 37.44L225.24 2.85ZM245.37 9.99L245.37 14.88L238.05 31.50L231.21 31.50L238.59 15.69L230.91 15.69L230.91 9.99L245.37 9.99Z" transform="rotate(0 122.68499755859375 20.144999980926514)"></path><defs id="SvgjsDefs1010"></defs></svg></g></svg>